<?xml version="1.0" standalone="no"?>
<!DOCTYPE svg PUBLIC "-//W3C//DTD SVG 20010904//EN"
 "http://www.w3.org/TR/2001/REC-SVG-20010904/DTD/svg10.dtd">
<svg version="1.0" xmlns="http://www.w3.org/2000/svg"
 width="256.000000pt" height="215.000000pt" viewBox="0 0 256.000000 215.000000"
 preserveAspectRatio="xMidYMid meet">

<g transform="translate(0.000000,215.000000) scale(0.100000,-0.100000)"
fill="#000000" stroke="none">
<path d="M975 1927 c-22 -23 -69 -72 -105 -109 -61 -64 -63 -69 -47 -85 16
-16 19 -15 59 22 l43 40 -40 -43 -39 -42 82 -82 c63 -63 84 -80 93 -71 9 9 9
16 -1 30 -12 15 -12 16 0 6 23 -21 31 -15 14 12 -15 23 -15 26 5 54 12 16 40
44 62 62 36 28 43 30 66 20 22 -10 29 -9 45 6 18 19 16 22 -86 121 -58 56
-107 102 -108 102 -2 -1 -21 -20 -43 -43z m27 -173 c-3 -16 1 -30 9 -36 12 -8
11 -9 -1 -5 -17 4 -25 30 -16 53 9 23 14 16 8 -12z m-112 -28 c0 -2 -8 -10
-17 -17 -16 -13 -17 -12 -4 4 13 16 21 21 21 13z"/>
<path d="M1510 1949 c-9 -15 -8 -24 1 -37 12 -15 11 -15 -6 0 -18 16 -22 14
-102 -64 -82 -81 -83 -82 -64 -101 15 -16 22 -17 40 -7 31 16 53 6 105 -50 48
-51 54 -68 34 -88 -10 -10 -10 -15 2 -22 8 -5 11 -10 5 -10 -5 0 -4 -5 3 -12
10 -10 35 10 117 92 l105 105 -107 107 c-59 60 -111 108 -115 108 -4 0 -12 -9
-18 -21z m5 -238 c-6 -5 -25 10 -25 20 0 5 6 4 14 -3 8 -7 12 -15 11 -17z"/>
<path d="M1085 1690 c-33 -34 -36 -28 64 -132 l55 -58 -34 -29 c-40 -34 -118
-74 -172 -89 -31 -9 -38 -8 -38 4 0 21 -27 29 -46 13 -9 -7 -25 -18 -37 -24
-18 -9 -43 -42 -64 -84 -3 -8 1 -19 10 -26 10 -7 17 -25 17 -41 1 -84 70 -154
153 -154 36 0 46 -4 50 -20 6 -25 18 -25 47 0 13 11 29 20 37 20 7 0 17 8 20
18 4 9 15 29 26 44 20 28 16 48 -10 48 -12 0 -14 6 -8 28 11 47 54 132 86 173
l32 40 23 -22 c28 -26 89 -142 99 -186 5 -26 3 -33 -9 -33 -26 0 -29 -20 -7
-44 12 -12 21 -27 21 -33 0 -15 89 -75 101 -68 5 4 9 12 9 19 0 8 15 13 45 14
25 0 60 9 78 19 40 24 77 87 77 133 0 25 6 39 21 48 20 13 20 14 3 33 -9 10
-22 29 -28 41 -10 19 -43 44 -85 65 -8 3 -19 -1 -26 -10 -7 -10 -21 -17 -31
-17 -28 0 -154 64 -188 95 l-28 26 78 80 77 80 -31 31 -31 31 -82 -77 -83 -76
-30 27 c-17 15 -54 49 -81 75 l-51 48 -29 -30z m155 -146 c0 -8 -4 -14 -8 -14
-13 0 -132 126 -132 140 0 6 32 -16 70 -51 39 -34 70 -68 70 -75z m186 98
c-16 -15 -25 -20 -21 -12 13 25 38 50 44 45 3 -3 -8 -18 -23 -33z m-86 -81 c0
-5 -34 -48 -75 -96 -41 -47 -84 -103 -95 -125 -11 -22 -24 -40 -28 -40 -5 0
-23 15 -41 34 l-32 33 53 31 c29 16 89 62 133 101 44 39 81 71 83 71 1 0 2 -4
2 -9z m40 -173 l0 -28 -36 40 c-24 26 -34 45 -30 57 10 26 66 -32 66 -69z m84
-14 c13 -5 14 -9 5 -20 -16 -20 -29 -17 -29 6 0 22 1 23 24 14z m-473 -44
c-130 -21 -135 -195 -5 -220 32 -6 34 -8 11 -9 -63 -2 -117 53 -117 119 0 69
52 120 120 118 33 0 32 -1 -9 -8z m577 3 c-10 -2 -26 -2 -35 0 -10 3 -2 5 17
5 19 0 27 -2 18 -5z m-71 -14 c-10 -6 -27 -25 -38 -42 -10 -18 -19 -27 -19
-20 0 16 49 73 63 73 7 0 4 -5 -6 -11z m-60 -111 c-3 -7 -5 -2 -5 12 0 14 2
19 5 13 2 -7 2 -19 0 -25z m69 -86 c16 -6 38 -13 49 -16 11 -3 2 -3 -20 -1
-29 3 -48 13 -67 35 -16 17 -28 36 -28 43 0 6 9 -2 19 -19 10 -17 32 -36 47
-42z"/>
<path d="M232 1633 c2 -11 14 -19 31 -21 26 -3 28 -2 17 17 -13 26 -53 29 -48
4z"/>
<path d="M362 1633 c2 -11 14 -19 31 -21 26 -3 28 -2 17 17 -13 26 -53 29 -48
4z"/>
<path d="M492 1633 c2 -10 13 -19 26 -21 17 -3 22 2 22 17 0 16 -6 21 -26 21
-19 0 -25 -5 -22 -17z"/>
<path d="M622 1633 c2 -10 13 -19 26 -21 17 -3 22 2 22 17 0 16 -6 21 -26 21
-19 0 -25 -5 -22 -17z"/>
<path d="M1892 1633 c2 -10 13 -19 26 -21 17 -3 22 2 22 17 0 16 -6 21 -26 21
-19 0 -25 -5 -22 -17z"/>
<path d="M2022 1633 c5 -26 44 -29 51 -4 4 18 0 21 -25 21 -23 0 -29 -4 -26
-17z"/>
<path d="M2152 1633 c5 -26 35 -28 48 -4 10 19 8 21 -20 21 -25 0 -31 -4 -28
-17z"/>
<path d="M2282 1633 c5 -26 35 -28 48 -4 10 19 8 21 -20 21 -25 0 -31 -4 -28
-17z"/>
<path d="M317 1604 c-12 -13 6 -34 30 -34 19 0 24 4 19 16 -3 9 -6 18 -6 20 0
6 -36 5 -43 -2z"/>
<path d="M440 1591 c0 -16 6 -21 26 -21 33 0 30 33 -4 38 -17 3 -22 -2 -22
-17z"/>
<path d="M570 1590 c0 -14 7 -20 24 -20 19 0 23 4 19 20 -3 11 -14 20 -24 20
-12 0 -19 -7 -19 -20z"/>
<path d="M690 1590 c0 -15 7 -20 25 -20 18 0 25 5 25 20 0 15 -7 20 -25 20
-18 0 -25 -5 -25 -20z"/>
<path d="M1830 1590 c0 -13 7 -20 20 -20 13 0 20 7 20 20 0 13 -7 20 -20 20
-13 0 -20 -7 -20 -20z"/>
<path d="M1950 1590 c0 -24 35 -28 44 -4 9 23 8 24 -19 24 -18 0 -25 -5 -25
-20z"/>
<path d="M2077 1603 c-4 -3 -7 -12 -7 -20 0 -20 38 -15 50 7 9 17 8 20 -13 20
-13 0 -27 -3 -30 -7z"/>
<path d="M2196 1594 c-9 -23 -8 -24 18 -24 20 0 36 16 36 36 0 12 -49 2 -54
-12z"/>
<path d="M282 1543 c2 -11 14 -19 31 -21 26 -3 28 -2 17 17 -13 26 -53 29 -48
4z"/>
<path d="M400 1541 c0 -16 6 -21 26 -21 33 0 30 33 -4 38 -17 3 -22 -2 -22
-17z"/>
<path d="M520 1540 c0 -15 7 -20 26 -20 20 0 25 4 20 16 -3 9 -6 18 -6 20 0 2
-9 4 -20 4 -13 0 -20 -7 -20 -20z"/>
<path d="M640 1540 c0 -13 7 -20 20 -20 13 0 20 7 20 20 0 13 -7 20 -20 20
-13 0 -20 -7 -20 -20z"/>
<path d="M760 1540 c0 -13 7 -20 20 -20 13 0 20 7 20 20 0 13 -7 20 -20 20
-13 0 -20 -7 -20 -20z"/>
<path d="M1762 1543 c2 -10 12 -18 23 -18 11 0 21 8 23 18 3 13 -3 17 -23 17
-20 0 -26 -4 -23 -17z"/>
<path d="M1880 1540 c0 -24 35 -28 44 -4 9 23 8 24 -19 24 -18 0 -25 -5 -25
-20z"/>
<path d="M2000 1540 c0 -13 7 -20 19 -20 10 0 21 9 24 20 4 16 0 20 -19 20
-17 0 -24 -6 -24 -20z"/>
<path d="M2115 1550 c-3 -5 -3 -14 0 -20 10 -17 34 -11 45 10 9 17 8 20 -14
20 -14 0 -28 -4 -31 -10z"/>
<path d="M2232 1543 c5 -25 31 -27 46 -3 11 18 10 20 -19 20 -24 0 -30 -4 -27
-17z"/>
<path d="M365 1510 c-9 -15 4 -30 27 -30 14 0 18 5 14 16 -3 9 -6 18 -6 20 0
8 -29 4 -35 -6z"/>
<path d="M478 1514 c-12 -11 4 -34 24 -34 13 0 18 6 16 17 -3 18 -29 29 -40
17z"/>
<path d="M597 1513 c-14 -13 -6 -33 13 -33 13 0 20 7 20 20 0 19 -20 27 -33
13z"/>
<path d="M707 1513 c-14 -13 -6 -33 13 -33 13 0 20 7 20 20 0 19 -20 27 -33
13z"/>
<path d="M1827 1513 c-14 -13 -6 -33 13 -33 13 0 20 7 20 20 0 19 -20 27 -33
13z"/>
<path d="M1937 1513 c-14 -13 -6 -33 13 -33 13 0 20 7 20 20 0 19 -20 27 -33
13z"/>
<path d="M2047 1513 c-14 -13 -6 -33 12 -33 16 0 31 18 31 36 0 7 -36 5 -43
-3z"/>
<path d="M2157 1513 c-14 -13 -6 -33 12 -33 16 0 31 18 31 36 0 7 -36 5 -43
-3z"/>
<path d="M332 1453 c2 -10 14 -20 27 -21 19 -3 22 0 17 13 -3 9 -6 19 -6 21 0
2 -9 4 -21 4 -14 0 -19 -5 -17 -17z"/>
<path d="M440 1450 c0 -14 7 -20 24 -20 19 0 23 4 19 20 -3 11 -14 20 -24 20
-12 0 -19 -7 -19 -20z"/>
<path d="M550 1451 c0 -15 6 -21 21 -21 25 0 22 33 -4 38 -12 2 -17 -3 -17
-17z"/>
<path d="M652 1453 c2 -10 14 -20 27 -21 19 -3 22 0 17 13 -3 9 -6 19 -6 21 0
2 -9 4 -21 4 -14 0 -19 -5 -17 -17z"/>
<path d="M760 1450 c0 -13 7 -20 20 -20 13 0 20 7 20 20 0 13 -7 20 -20 20
-13 0 -20 -7 -20 -20z"/>
<path d="M1762 1453 c5 -26 38 -29 38 -4 0 15 -6 21 -21 21 -14 0 -19 -5 -17
-17z"/>
<path d="M1870 1449 c0 -25 33 -22 38 4 2 12 -3 17 -17 17 -15 0 -21 -6 -21
-21z"/>
<path d="M1970 1450 c0 -13 7 -20 19 -20 10 0 21 9 24 20 4 16 0 20 -19 20
-17 0 -24 -6 -24 -20z"/>
<path d="M2080 1449 c0 -25 33 -22 38 4 2 12 -3 17 -17 17 -15 0 -21 -6 -21
-21z"/>
<path d="M2183 1455 c-3 -9 -2 -19 1 -23 8 -8 38 10 44 26 6 18 -38 14 -45 -3z"/>
<path d="M417 1423 c-16 -15 -6 -33 18 -33 23 0 24 2 15 20 -11 21 -22 25 -33
13z"/>
<path d="M517 1424 c-14 -15 -6 -34 14 -34 14 0 19 5 17 17 -3 18 -20 27 -31
17z"/>
<path d="M617 1423 c-14 -13 -6 -33 13 -33 13 0 20 7 20 20 0 19 -20 27 -33
13z"/>
<path d="M717 1423 c-14 -13 -6 -33 13 -33 13 0 20 7 20 20 0 19 -20 27 -33
13z"/>
<path d="M1817 1423 c-14 -13 -6 -33 13 -33 13 0 20 7 20 20 0 19 -20 27 -33
13z"/>
<path d="M1913 1415 c-3 -9 -3 -18 0 -22 10 -10 37 6 37 22 0 20 -29 20 -37 0z"/>
<path d="M2013 1415 c-3 -9 -3 -18 0 -22 10 -10 37 6 37 22 0 20 -29 20 -37 0z"/>
<path d="M2110 1409 c0 -25 33 -22 38 4 2 12 -3 17 -17 17 -15 0 -21 -6 -21
-21z"/>
<path d="M384 1364 c3 -9 6 -18 6 -20 0 -2 9 -4 21 -4 15 0 19 4 15 16 -3 9
-6 18 -6 20 0 2 -9 4 -21 4 -15 0 -19 -4 -15 -16z"/>
<path d="M482 1364 c2 -11 11 -20 22 -22 13 -3 17 1 14 14 -2 11 -11 20 -22
22 -13 3 -17 -1 -14 -14z"/>
<path d="M580 1360 c0 -13 7 -20 19 -20 14 0 18 5 14 20 -3 11 -12 20 -19 20
-8 0 -14 -9 -14 -20z"/>
<path d="M670 1361 c0 -15 6 -21 21 -21 14 0 19 5 17 17 -5 26 -38 29 -38 4z"/>
<path d="M1852 1363 c2 -10 10 -18 18 -18 8 0 16 8 18 18 2 12 -3 17 -18 17
-15 0 -20 -5 -18 -17z"/>
<path d="M1950 1360 c0 -11 6 -20 14 -20 7 0 16 9 19 20 4 15 0 20 -14 20 -12
0 -19 -7 -19 -20z"/>
<path d="M2040 1360 c0 -24 25 -27 34 -4 9 23 8 24 -14 24 -13 0 -20 -7 -20
-20z"/>
<path d="M2137 1373 c-4 -3 -7 -12 -7 -20 0 -20 28 -15 40 7 9 17 8 20 -8 20
-10 0 -22 -3 -25 -7z"/>
<path d="M2230 986 c0 -2 8 -10 18 -17 15 -13 16 -12 3 4 -13 16 -21 21 -21
13z"/>
<path d="M2201 952 c-1 -20 2 -21 19 -12 17 9 20 30 4 30 -3 0 -2 -4 1 -10 3
-5 2 -10 -4 -10 -5 0 -12 6 -14 13 -3 6 -6 2 -6 -11z"/>
<path d="M2171 950 c0 -8 4 -22 9 -30 12 -18 12 -2 0 25 -6 13 -9 15 -9 5z"/>
<path d="M410 740 l0 -200 180 0 180 0 0 45 0 45 -140 0 -140 0 0 35 0 35 115
0 115 0 0 40 0 40 -115 0 -115 0 0 35 0 35 140 0 140 0 0 45 0 45 -180 0 -180
0 0 -200z"/>
<path d="M830 766 c0 -233 -11 -220 188 -224 147 -3 150 -3 178 21 l29 25 3
176 3 176 -45 0 -46 0 0 -155 0 -155 -115 0 -115 0 0 155 0 155 -40 0 -40 0 0
-174z"/>
<path d="M1290 740 l0 -200 40 0 40 0 0 65 0 65 63 -1 62 0 53 -65 c51 -61 55
-64 98 -64 56 0 57 13 3 74 -43 49 -44 52 -7 70 37 19 49 54 46 135 -3 66 -6
76 -31 97 -27 23 -33 24 -198 24 l-169 0 0 -200z m310 65 l0 -45 -115 0 -115
0 0 45 0 45 115 0 115 0 0 -45z"/>
<path d="M1793 930 c-37 -15 -43 -42 -43 -195 0 -142 1 -147 25 -170 23 -24
28 -25 169 -25 139 0 146 1 173 24 l28 24 -2 154 c-3 151 -3 153 -28 176 -24
21 -35 22 -163 21 -75 0 -147 -4 -159 -9z m267 -190 l0 -110 -115 0 -115 0 0
110 0 110 115 0 115 0 0 -110z"/>
<path d="M2245 921 c-6 -5 -19 -11 -30 -14 -19 -4 -19 -5 1 -6 12 0 27 6 34
14 14 16 10 20 -5 6z"/>
<path d="M400 405 l0 -65 849 0 848 0 26 58 c13 31 23 60 20 65 -2 4 -395 7
-874 7 l-869 0 0 -65z m580 -4 c0 -10 -9 -16 -25 -16 -27 0 -34 22 -13 43 14
14 38 -2 38 -27z m-180 0 c0 -14 -7 -18 -30 -17 -22 1 -30 6 -30 20 0 12 5 16
15 13 8 -4 17 -2 20 4 9 14 25 1 25 -20z m52 4 c4 -21 1 -25 -18 -25 -19 0
-24 5 -24 25 0 18 5 25 19 25 12 0 20 -9 23 -25z m58 15 c0 -5 -7 -10 -15 -10
-23 0 -18 -18 8 -23 19 -4 18 -4 -5 -6 -21 -1 -28 4 -28 17 0 10 3 22 7 25 10
11 33 8 33 -3z m130 -14 c0 -18 -5 -23 -25 -23 -18 0 -25 5 -25 19 0 15 5 19
20 15 11 -3 20 -1 20 4 0 5 2 9 5 9 3 0 5 -11 5 -24z m30 -1 c0 -14 -4 -25
-10 -25 -5 0 -10 11 -10 25 0 14 5 25 10 25 6 0 10 -11 10 -25z m50 15 c0 -5
-7 -10 -15 -10 -23 0 -18 -18 8 -23 19 -4 18 -4 -5 -6 -21 -1 -28 4 -28 17 0
10 3 22 7 25 10 11 33 8 33 -3z m68 -15 c2 -15 -3 -20 -23 -20 -16 0 -25 6
-25 16 0 35 43 39 48 4z m90 0 c2 -15 -3 -20 -23 -20 -16 0 -25 6 -25 16 0 35
43 39 48 4z m122 15 c0 -5 -4 -10 -10 -10 -5 0 -10 -8 -11 -17 0 -15 -2 -15
-9 2 -13 30 -12 35 10 35 11 0 20 -4 20 -10z m60 -15 c0 -18 -5 -25 -19 -25
-11 0 -23 5 -26 10 -11 18 3 40 25 40 15 0 20 -7 20 -25z m57 16 c10 9 13 5
13 -17 0 -20 -3 -25 -9 -16 -11 17 -21 17 -32 0 -6 -9 -9 -3 -9 17 0 22 3 26
12 17 8 -8 15 -9 25 -1z m73 -16 c0 -18 -5 -25 -19 -25 -11 0 -23 5 -26 10
-11 18 3 40 25 40 15 0 20 -7 20 -25z m54 3 c-7 -26 -12 -33 -18 -27 -2 2 -7
14 -10 27 -6 18 -4 22 14 22 18 0 20 -4 14 -22z m36 -3 c0 -14 -4 -25 -10 -25
-5 0 -10 11 -10 25 0 14 5 25 10 25 6 0 10 -11 10 -25z m48 7 c18 18 22 5 6
-17 -15 -20 -15 -20 -30 -1 -8 11 -14 25 -14 30 0 6 6 3 14 -6 9 -13 16 -14
24 -6z m80 -7 c2 -15 -3 -20 -23 -20 -16 0 -25 6 -25 16 0 35 43 39 48 4z
m-1230 -8 c2 -11 -3 -17 -16 -17 -18 0 -20 6 -13 38 3 11 27 -7 29 -21z m732
8 c0 -21 18 -19 23 3 3 12 5 11 6 -6 1 -19 -3 -23 -21 -20 -23 3 -39 38 -19
38 6 0 11 -7 11 -15z m698 -8 c2 -12 -3 -17 -17 -17 -12 0 -21 6 -21 13 0 31
32 34 38 4z"/>
<path d="M1430 400 c0 -5 5 -10 10 -10 6 0 10 5 10 10 0 6 -4 10 -10 10 -5 0
-10 -4 -10 -10z"/>
<path d="M1560 400 c0 -5 5 -10 10 -10 6 0 10 5 10 10 0 6 -4 10 -10 10 -5 0
-10 -4 -10 -10z"/>
</g>
</svg>
